<svg width="25" height="24" viewBox="0 0 25 24" fill="none" xmlns="http://www.w3.org/2000/svg">
<path d="M22.7753 0H1.42534C0.693342 0 0.100342 0.593 0.100342 1.325V22.676C0.100342 23.407 0.693342 24 1.42534 24H12.9203V14.706H9.79234V11.084H12.9203V8.413C12.9203 5.313 14.8133 3.625 17.5793 3.625C18.9043 3.625 20.0423 3.724 20.3743 3.768V7.008L18.4563 7.009C16.9523 7.009 16.6613 7.724 16.6613 8.772V11.085H20.2483L19.7813 14.707H16.6613V24H22.7773C23.5073 24 24.1003 23.407 24.1003 22.675V1.325C24.1003 0.593 23.5073 0 22.7753 0Z" fill="#FEFCF7"/>
</svg>
