<svg width="689" height="118" viewBox="0 0 689 118" fill="none" xmlns="http://www.w3.org/2000/svg">
<g opacity="0.503176">
<path d="M31.4911 50.288C36.9311 50.288 41.6831 51.328 45.7471 53.408C49.8111 55.456 52.9631 58.336 55.2031 62.048C57.4751 65.76 58.6111 70.08 58.6111 75.008C58.6111 79.552 57.4271 83.664 55.0591 87.344C52.6911 91.024 49.4111 93.952 45.2191 96.128C41.0591 98.272 36.2271 99.344 30.7231 99.344C25.2831 99.344 20.5311 98.304 16.4671 96.224C12.4031 94.112 9.23513 91.2 6.96313 87.488C4.72313 83.776 3.60313 79.488 3.60313 74.624C3.60313 69.984 4.78713 65.84 7.15513 62.192C9.52313 58.512 12.7871 55.616 16.9471 53.504C21.1391 51.36 25.9871 50.288 31.4911 50.288ZM34.9951 92.384C36.2111 92.096 37.1391 91.248 37.7791 89.84C38.4191 88.432 38.7071 86.384 38.6431 83.696C38.5791 81.008 38.0991 77.6 37.2031 73.472C36.3711 69.504 35.4271 66.272 34.3711 63.776C33.3471 61.28 32.2271 59.488 31.0111 58.4C29.7951 57.312 28.5311 56.928 27.2191 57.248C26.0031 57.536 25.0751 58.384 24.4351 59.792C23.7951 61.2 23.5071 63.248 23.5711 65.936C23.6671 68.592 24.1471 72 25.0111 76.16C25.8431 80.096 26.7871 83.328 27.8431 85.856C28.8991 88.352 30.0191 90.144 31.2031 91.232C32.4191 92.288 33.6831 92.672 34.9951 92.384ZM98.9836 88.16V87.536H98.2636V65.36C98.2636 64.336 98.1196 63.616 97.8316 63.2C97.5756 62.752 97.1756 62.448 96.6316 62.288L95.5756 61.952C94.9036 61.728 94.4076 61.408 94.0876 60.992C93.7996 60.576 93.6556 60.048 93.6556 59.408C93.6556 58.64 93.8636 58.032 94.2796 57.584C94.6956 57.136 95.4796 56.688 96.6316 56.24L107.288 52.112C108.92 51.472 110.232 51.008 111.224 50.72C112.248 50.432 113.24 50.288 114.2 50.288C115.64 50.288 116.728 50.704 117.464 51.536C118.232 52.336 118.616 53.36 118.616 54.608V87.92C118.616 89.2 118.712 90.112 118.904 90.656C119.096 91.168 119.432 91.536 119.912 91.76L120.968 92.24C121.704 92.56 122.232 92.96 122.552 93.44C122.872 93.92 123.032 94.48 123.032 95.12C123.032 96.016 122.744 96.72 122.168 97.232C121.592 97.744 120.664 98 119.384 98H107.624C105.352 98 103.336 97.024 101.576 95.072C99.8476 93.12 98.9836 90.816 98.9836 88.16ZM67.2556 83.984V65.36C67.2556 64.336 67.1116 63.616 66.8236 63.2C66.5676 62.752 66.1676 62.448 65.6236 62.288L64.5676 61.952C63.8956 61.728 63.3996 61.408 63.0796 60.992C62.7916 60.576 62.6476 60.048 62.6476 59.408C62.6476 58.64 62.8556 58.032 63.2716 57.584C63.6876 57.136 64.4716 56.688 65.6236 56.24L76.2796 52.112C78.0076 51.44 79.3676 50.976 80.3596 50.72C81.3516 50.432 82.2316 50.288 82.9996 50.288C84.5356 50.288 85.6876 50.704 86.4556 51.536C87.2236 52.336 87.6076 53.36 87.6076 54.608V81.104C87.6076 83.152 88.0716 84.688 88.9996 85.712C89.9596 86.736 91.2876 87.248 92.9836 87.248C94.0396 87.248 95.1436 87.04 96.2956 86.624C97.4476 86.208 98.4716 85.6 99.3676 84.8L101.048 83.312L103.928 86.384L102.488 87.728C97.9756 92.048 94.0556 95.072 90.7276 96.8C87.3996 98.496 84.3436 99.344 81.5596 99.344C77.3036 99.344 73.8476 97.92 71.1916 95.072C68.5676 92.224 67.2556 88.528 67.2556 83.984ZM151.477 71.792C151.477 66.896 152.117 62.864 153.397 59.696C154.677 56.496 156.373 54.128 158.485 52.592C160.629 51.056 162.965 50.288 165.493 50.288C168.885 50.288 171.477 51.312 173.269 53.36C175.093 55.376 176.005 58.432 176.005 62.528C176.005 66.72 175.157 69.808 173.461 71.792C171.797 73.776 169.621 74.768 166.933 74.768C164.213 74.768 162.165 74.08 160.789 72.704C159.445 71.296 158.773 69.36 158.773 66.896V64.88C158.741 64.048 158.549 63.424 158.197 63.008C157.877 62.56 157.365 62.336 156.661 62.336C156.021 62.336 155.445 62.624 154.933 63.2C154.453 63.744 154.069 64.656 153.781 65.936C153.493 67.184 153.349 68.88 153.349 71.024L151.477 71.792ZM152.005 54.608L153.349 64.64V87.92C153.349 89.04 153.509 89.84 153.829 90.32C154.149 90.768 154.885 91.104 156.037 91.328L159.685 92.048C160.645 92.24 161.349 92.576 161.797 93.056C162.245 93.536 162.469 94.208 162.469 95.072C162.469 96 162.149 96.72 161.509 97.232C160.901 97.744 159.989 98 158.773 98H132.229C130.949 98 130.021 97.744 129.445 97.232C128.869 96.72 128.581 96.016 128.581 95.12C128.581 94.48 128.741 93.92 129.061 93.44C129.381 92.96 129.909 92.56 130.645 92.24L131.701 91.76C132.181 91.536 132.517 91.168 132.709 90.656C132.901 90.112 132.997 89.2 132.997 87.92V65.552C132.997 64.528 132.853 63.808 132.565 63.392C132.309 62.944 131.909 62.64 131.365 62.48L130.309 62.144C129.637 61.92 129.141 61.6 128.821 61.184C128.533 60.768 128.389 60.24 128.389 59.6C128.389 58.832 128.597 58.224 129.013 57.776C129.461 57.296 130.245 56.848 131.365 56.432L141.685 52.4C143.957 51.504 145.589 50.928 146.581 50.672C147.573 50.416 148.341 50.288 148.885 50.288C149.781 50.288 150.469 50.624 150.949 51.296C151.429 51.936 151.781 53.04 152.005 54.608ZM247.403 65.12C247.403 67.552 246.475 69.616 244.619 71.312C242.795 73.008 240.347 73.856 237.275 73.856C234.299 73.856 232.059 73.072 230.555 71.504C229.083 69.904 228.347 67.872 228.347 65.408V63.872C228.347 61.792 227.915 60.16 227.051 58.976C226.187 57.76 225.051 57.152 223.643 57.152C222.523 57.152 221.467 57.568 220.475 58.4C219.515 59.232 218.731 60.512 218.123 62.24C217.515 63.936 217.211 66.096 217.211 68.72C217.211 72.432 217.835 75.536 219.083 78.032C220.363 80.528 222.107 82.416 224.315 83.696C226.523 84.944 229.035 85.568 231.851 85.568C233.899 85.568 235.739 85.328 237.371 84.848C239.035 84.336 240.683 83.36 242.315 81.92C243.243 81.088 243.947 80.528 244.427 80.24C244.907 79.952 245.371 79.808 245.819 79.808C246.459 79.808 246.923 80.128 247.211 80.768C247.531 81.408 247.691 82.192 247.691 83.12C247.691 85.968 246.731 88.64 244.811 91.136C242.923 93.6 240.283 95.584 236.891 97.088C233.499 98.592 229.563 99.344 225.083 99.344C220.187 99.344 215.787 98.384 211.883 96.464C208.011 94.512 204.939 91.808 202.667 88.352C200.395 84.864 199.259 80.8 199.259 76.16C199.259 71.2 200.347 66.768 202.523 62.864C204.731 58.96 207.835 55.888 211.835 53.648C215.867 51.408 220.619 50.288 226.091 50.288C230.475 50.288 234.251 50.96 237.419 52.304C240.619 53.616 243.083 55.392 244.811 57.632C246.539 59.872 247.403 62.368 247.403 65.12ZM280.679 50.288C286.119 50.288 290.871 51.328 294.935 53.408C298.999 55.456 302.151 58.336 304.391 62.048C306.663 65.76 307.799 70.08 307.799 75.008C307.799 79.552 306.615 83.664 304.247 87.344C301.879 91.024 298.599 93.952 294.407 96.128C290.247 98.272 285.415 99.344 279.911 99.344C274.471 99.344 269.719 98.304 265.655 96.224C261.591 94.112 258.423 91.2 256.151 87.488C253.911 83.776 252.791 79.488 252.791 74.624C252.791 69.984 253.975 65.84 256.343 62.192C258.711 58.512 261.975 55.616 266.135 53.504C270.327 51.36 275.175 50.288 280.679 50.288ZM284.183 92.384C285.399 92.096 286.327 91.248 286.967 89.84C287.607 88.432 287.895 86.384 287.831 83.696C287.767 81.008 287.287 77.6 286.391 73.472C285.559 69.504 284.615 66.272 283.559 63.776C282.535 61.28 281.415 59.488 280.199 58.4C278.983 57.312 277.719 56.928 276.407 57.248C275.191 57.536 274.263 58.384 273.623 59.792C272.983 61.2 272.695 63.248 272.759 65.936C272.855 68.592 273.335 72 274.199 76.16C275.031 80.096 275.975 83.328 277.031 85.856C278.087 88.352 279.207 90.144 280.391 91.232C281.607 92.288 282.871 92.672 284.183 92.384ZM337.755 29.84V87.92C337.755 89.2 337.851 90.112 338.043 90.656C338.235 91.168 338.571 91.536 339.051 91.76L340.107 92.24C340.843 92.56 341.371 92.96 341.691 93.44C342.011 93.92 342.171 94.48 342.171 95.12C342.171 96.016 341.883 96.72 341.307 97.232C340.731 97.744 339.803 98 338.523 98H316.635C315.355 98 314.427 97.744 313.851 97.232C313.275 96.72 312.987 96.016 312.987 95.12C312.987 94.48 313.147 93.92 313.467 93.44C313.787 92.96 314.315 92.56 315.051 92.24L316.107 91.76C316.587 91.536 316.923 91.168 317.115 90.656C317.307 90.112 317.403 89.2 317.403 87.92V40.592C317.403 39.568 317.259 38.848 316.971 38.432C316.715 37.984 316.315 37.68 315.771 37.52L314.715 37.184C314.043 36.96 313.547 36.64 313.227 36.224C312.939 35.808 312.795 35.28 312.795 34.64C312.795 33.872 313.003 33.264 313.419 32.816C313.835 32.368 314.619 31.92 315.771 31.472L326.427 27.344C328.155 26.672 329.515 26.208 330.507 25.952C331.499 25.664 332.379 25.52 333.147 25.52C334.683 25.52 335.835 25.936 336.603 26.768C337.371 27.568 337.755 28.592 337.755 29.84ZM371.505 29.84V87.92C371.505 89.2 371.601 90.112 371.793 90.656C371.985 91.168 372.321 91.536 372.801 91.76L373.857 92.24C374.593 92.56 375.121 92.96 375.441 93.44C375.761 93.92 375.921 94.48 375.921 95.12C375.921 96.016 375.633 96.72 375.057 97.232C374.481 97.744 373.553 98 372.273 98H350.385C349.105 98 348.177 97.744 347.601 97.232C347.025 96.72 346.737 96.016 346.737 95.12C346.737 94.48 346.897 93.92 347.217 93.44C347.537 92.96 348.065 92.56 348.801 92.24L349.857 91.76C350.337 91.536 350.673 91.168 350.865 90.656C351.057 90.112 351.153 89.2 351.153 87.92V40.592C351.153 39.568 351.009 38.848 350.721 38.432C350.465 37.984 350.065 37.68 349.521 37.52L348.465 37.184C347.793 36.96 347.297 36.64 346.977 36.224C346.689 35.808 346.545 35.28 346.545 34.64C346.545 33.872 346.753 33.264 347.169 32.816C347.585 32.368 348.369 31.92 349.521 31.472L360.177 27.344C361.905 26.672 363.265 26.208 364.257 25.952C365.249 25.664 366.129 25.52 366.897 25.52C368.433 25.52 369.585 25.936 370.353 26.768C371.121 27.568 371.505 28.592 371.505 29.84ZM429.111 68.816C429.111 71.056 428.503 72.8 427.287 74.048C426.071 75.264 424.327 75.872 422.055 75.872H393.591V70.88H406.407C408.167 70.88 409.047 70.048 409.047 68.384C409.047 64.352 408.583 61.472 407.655 59.744C406.727 58.016 405.495 57.152 403.959 57.152C402.839 57.152 401.831 57.568 400.935 58.4C400.039 59.232 399.319 60.512 398.775 62.24C398.263 63.936 398.007 66.096 398.007 68.72C398.007 74.544 399.319 78.816 401.943 81.536C404.567 84.224 408.151 85.568 412.695 85.568C414.807 85.568 416.727 85.328 418.455 84.848C420.183 84.368 421.879 83.392 423.543 81.92C424.471 81.088 425.175 80.528 425.655 80.24C426.135 79.952 426.599 79.808 427.047 79.808C427.687 79.808 428.151 80.128 428.439 80.768C428.759 81.408 428.919 82.192 428.919 83.12C428.919 85.968 427.943 88.64 425.991 91.136C424.071 93.6 421.383 95.584 417.927 97.088C414.503 98.592 410.503 99.344 405.927 99.344C401.031 99.344 396.631 98.384 392.727 96.464C388.823 94.512 385.735 91.808 383.463 88.352C381.191 84.864 380.055 80.8 380.055 76.16C380.055 70.944 381.095 66.4 383.175 62.528C385.255 58.656 388.279 55.648 392.247 53.504C396.247 51.36 401.063 50.288 406.695 50.288C411.655 50.288 415.799 51.088 419.127 52.688C422.455 54.288 424.951 56.48 426.615 59.264C428.279 62.048 429.111 65.232 429.111 68.816ZM481.966 65.12C481.966 67.552 481.038 69.616 479.182 71.312C477.358 73.008 474.91 73.856 471.838 73.856C468.862 73.856 466.622 73.072 465.118 71.504C463.646 69.904 462.91 67.872 462.91 65.408V63.872C462.91 61.792 462.478 60.16 461.614 58.976C460.75 57.76 459.614 57.152 458.206 57.152C457.086 57.152 456.03 57.568 455.038 58.4C454.078 59.232 453.294 60.512 452.686 62.24C452.078 63.936 451.774 66.096 451.774 68.72C451.774 72.432 452.398 75.536 453.646 78.032C454.926 80.528 456.67 82.416 458.878 83.696C461.086 84.944 463.598 85.568 466.414 85.568C468.462 85.568 470.302 85.328 471.934 84.848C473.598 84.336 475.246 83.36 476.878 81.92C477.806 81.088 478.51 80.528 478.99 80.24C479.47 79.952 479.934 79.808 480.382 79.808C481.022 79.808 481.486 80.128 481.774 80.768C482.094 81.408 482.254 82.192 482.254 83.12C482.254 85.968 481.294 88.64 479.374 91.136C477.486 93.6 474.846 95.584 471.454 97.088C468.062 98.592 464.126 99.344 459.646 99.344C454.75 99.344 450.35 98.384 446.446 96.464C442.574 94.512 439.502 91.808 437.23 88.352C434.958 84.864 433.822 80.8 433.822 76.16C433.822 71.2 434.91 66.768 437.086 62.864C439.294 58.96 442.398 55.888 446.398 53.648C450.43 51.408 455.182 50.288 460.654 50.288C465.038 50.288 468.814 50.96 471.982 52.304C475.182 53.616 477.646 55.392 479.374 57.632C481.102 59.872 481.966 62.368 481.966 65.12ZM489.561 57.968L488.025 57.344C487.321 57.056 486.793 56.688 486.441 56.24C486.089 55.792 485.913 55.248 485.913 54.608C485.913 53.68 486.217 52.976 486.825 52.496C487.465 51.984 488.281 51.728 489.273 51.728H491.913C492.521 51.728 493.081 51.568 493.593 51.248C494.137 50.928 494.825 50.352 495.657 49.52L503.481 41.6C504.537 40.544 505.513 39.76 506.409 39.248C507.337 38.736 508.217 38.48 509.049 38.48C509.977 38.48 510.697 38.784 511.209 39.392C511.753 40 512.025 40.88 512.025 42.032V80.528C512.025 82.864 512.425 84.64 513.225 85.856C514.025 87.072 515.177 87.68 516.681 87.68C517.897 87.68 518.825 87.376 519.465 86.768C520.137 86.16 520.665 85.472 521.049 84.704C521.465 83.904 521.897 83.2 522.345 82.592C522.793 81.984 523.401 81.68 524.169 81.68C524.809 81.68 525.321 81.904 525.705 82.352C526.089 82.8 526.281 83.568 526.281 84.656C526.281 87.376 525.497 89.856 523.929 92.096C522.361 94.304 520.201 96.064 517.449 97.376C514.697 98.688 511.561 99.344 508.041 99.344C502.825 99.344 498.793 98.096 495.945 95.6C493.097 93.072 491.673 89.264 491.673 84.176V61.088C491.673 60.16 491.497 59.488 491.145 59.072C490.825 58.656 490.297 58.288 489.561 57.968ZM505.017 58.544V51.728H522.537C523.529 51.728 524.313 51.952 524.889 52.4C525.497 52.816 525.801 53.424 525.801 54.224C525.801 55.44 525.209 56.464 524.025 57.296C522.841 58.128 520.889 58.544 518.169 58.544H505.017ZM554.974 54.608V87.92C554.974 89.2 555.07 90.112 555.262 90.656C555.454 91.168 555.79 91.536 556.27 91.76L557.326 92.24C558.062 92.56 558.59 92.96 558.91 93.44C559.23 93.92 559.39 94.48 559.39 95.12C559.39 96.016 559.102 96.72 558.526 97.232C557.95 97.744 557.022 98 555.742 98H533.854C532.574 98 531.646 97.744 531.07 97.232C530.494 96.72 530.206 96.016 530.206 95.12C530.206 94.48 530.366 93.92 530.686 93.44C531.006 92.96 531.534 92.56 532.27 92.24L533.326 91.76C533.806 91.536 534.142 91.168 534.334 90.656C534.526 90.112 534.622 89.2 534.622 87.92V65.36C534.622 64.336 534.478 63.616 534.19 63.2C533.934 62.752 533.534 62.448 532.99 62.288L531.934 61.952C531.262 61.728 530.766 61.408 530.446 60.992C530.158 60.576 530.014 60.048 530.014 59.408C530.014 58.64 530.222 58.032 530.638 57.584C531.054 57.136 531.838 56.688 532.99 56.24L543.646 52.112C545.374 51.44 546.734 50.976 547.726 50.72C548.718 50.432 549.598 50.288 550.366 50.288C551.902 50.288 553.054 50.704 553.822 51.536C554.59 52.336 554.974 53.36 554.974 54.608ZM543.742 46.064C540.158 46.064 537.326 45.232 535.246 43.568C533.166 41.904 532.126 39.632 532.126 36.752C532.126 33.904 533.166 31.664 535.246 30.032C537.326 28.4 540.158 27.584 543.742 27.584C547.326 27.584 550.158 28.4 552.238 30.032C554.318 31.664 555.358 33.904 555.358 36.752C555.358 39.632 554.318 41.904 552.238 43.568C550.158 45.232 547.326 46.064 543.742 46.064ZM591.46 50.288C596.9 50.288 601.652 51.328 605.716 53.408C609.78 55.456 612.932 58.336 615.172 62.048C617.444 65.76 618.58 70.08 618.58 75.008C618.58 79.552 617.396 83.664 615.028 87.344C612.66 91.024 609.38 93.952 605.188 96.128C601.028 98.272 596.196 99.344 590.692 99.344C585.252 99.344 580.5 98.304 576.436 96.224C572.372 94.112 569.204 91.2 566.932 87.488C564.692 83.776 563.572 79.488 563.572 74.624C563.572 69.984 564.756 65.84 567.124 62.192C569.492 58.512 572.756 55.616 576.916 53.504C581.108 51.36 585.956 50.288 591.46 50.288ZM594.964 92.384C596.18 92.096 597.108 91.248 597.748 89.84C598.388 88.432 598.676 86.384 598.612 83.696C598.548 81.008 598.068 77.6 597.172 73.472C596.34 69.504 595.396 66.272 594.34 63.776C593.316 61.28 592.196 59.488 590.98 58.4C589.764 57.312 588.5 56.928 587.188 57.248C585.972 57.536 585.044 58.384 584.404 59.792C583.764 61.2 583.476 63.248 583.54 65.936C583.636 68.592 584.116 72 584.98 76.16C585.812 80.096 586.756 83.328 587.812 85.856C588.868 88.352 589.988 90.144 591.172 91.232C592.388 92.288 593.652 92.672 594.964 92.384ZM648.536 54.608V87.92C648.536 89.2 648.632 90.096 648.824 90.608C649.016 91.12 649.352 91.504 649.832 91.76L650.792 92.288C651.848 92.896 652.376 93.776 652.376 94.928C652.376 96.976 651.144 98 648.68 98H627.416C626.136 98 625.208 97.744 624.632 97.232C624.056 96.72 623.768 96.016 623.768 95.12C623.768 94.48 623.928 93.92 624.248 93.44C624.568 92.96 625.096 92.56 625.832 92.24L626.888 91.76C627.368 91.536 627.704 91.168 627.896 90.656C628.088 90.112 628.184 89.2 628.184 87.92V65.36C628.184 64.336 628.04 63.616 627.752 63.2C627.496 62.752 627.096 62.448 626.552 62.288L625.496 61.952C624.824 61.728 624.328 61.408 624.008 60.992C623.72 60.576 623.576 60.048 623.576 59.408C623.576 58.64 623.784 58.032 624.2 57.584C624.616 57.136 625.4 56.688 626.552 56.24L637.208 52.112C638.84 51.472 640.152 51.008 641.144 50.72C642.168 50.432 643.16 50.288 644.12 50.288C645.56 50.288 646.648 50.704 647.384 51.536C648.152 52.336 648.536 53.36 648.536 54.608ZM646.808 66.32L643.928 63.248L645.368 61.904C649.88 57.584 653.8 54.576 657.128 52.88C660.456 51.152 663.512 50.288 666.296 50.288C670.584 50.288 674.04 51.712 676.664 54.56C679.288 57.376 680.6 61.072 680.6 65.648V87.92C680.6 89.2 680.696 90.112 680.888 90.656C681.08 91.168 681.416 91.536 681.896 91.76L682.952 92.24C683.688 92.56 684.216 92.96 684.536 93.44C684.856 93.92 685.016 94.48 685.016 95.12C685.016 96.016 684.728 96.72 684.152 97.232C683.576 97.744 682.648 98 681.368 98H660.104C657.64 98 656.408 96.976 656.408 94.928C656.408 93.776 656.936 92.896 657.992 92.288L658.952 91.76C659.432 91.504 659.768 91.12 659.96 90.608C660.152 90.096 660.248 89.2 660.248 87.92V68.528C660.248 66.48 659.768 64.944 658.808 63.92C657.88 62.896 656.568 62.384 654.872 62.384C653.816 62.384 652.712 62.592 651.56 63.008C650.408 63.424 649.384 64.032 648.488 64.832L646.808 66.32Z" fill="#83888F"/>
<rect width="689" height="118" fill="url(#paint0_linear_1_375)"/>
</g>
<defs>
<linearGradient id="paint0_linear_1_375" x1="0" y1="0" x2="0" y2="118" gradientUnits="userSpaceOnUse">
<stop stop-color="#FEFCF7" stop-opacity="0.01"/>
<stop offset="1" stop-color="#FEFCF7"/>
</linearGradient>
</defs>
</svg>
